<?xml version="1.0" encoding="UTF-8" standalone="no"?>
<!-- Created with Inkscape (http://www.inkscape.org/) -->

<svg
   xmlns:dc="http://purl.org/dc/elements/1.1/"
   xmlns:cc="http://creativecommons.org/ns#"
   xmlns:rdf="http://www.w3.org/1999/02/22-rdf-syntax-ns#"
   xmlns:svg="http://www.w3.org/2000/svg"
   xmlns="http://www.w3.org/2000/svg"
   xmlns:sodipodi="http://sodipodi.sourceforge.net/DTD/sodipodi-0.dtd"
   xmlns:inkscape="http://www.inkscape.org/namespaces/inkscape"
   width="744.09448819"
   height="1052.3622047"
   id="svg2"
   version="1.1"
   inkscape:version="0.48.3.1 r9886"
   sodipodi:docname="drawing.svg"
   inkscape:export-filename="/home/pf4d/Documents/killer_yeast/doc/images/drawing.png"
   inkscape:export-xdpi="300"
   inkscape:export-ydpi="300">
  <sodipodi:namedview
     id="base"
     pagecolor="#ffffff"
     bordercolor="#666666"
     borderopacity="1.0"
     inkscape:pageopacity="0.0"
     inkscape:pageshadow="2"
     inkscape:zoom="1.979899"
     inkscape:cx="206.14904"
     inkscape:cy="823.82684"
     inkscape:document-units="px"
     inkscape:current-layer="layer1"
     showgrid="true"
     inkscape:snap-global="false"
     showguides="true"
     inkscape:guide-bbox="true"
     inkscape:window-width="1190"
     inkscape:window-height="800"
     inkscape:window-x="178"
     inkscape:window-y="266"
     inkscape:window-maximized="0">
    <inkscape:grid
       id="grid2985"
       type="xygrid" />
  </sodipodi:namedview>
  <defs
     id="defs4" />
  <metadata
     id="metadata7">
    <rdf:RDF>
      <cc:Work
         rdf:about="">
        <dc:format>image/svg+xml</dc:format>
        <dc:type
           rdf:resource="http://purl.org/dc/dcmitype/StillImage" />
        <dc:title></dc:title>
      </cc:Work>
    </rdf:RDF>
  </metadata>
  <g
     id="layer1"
     inkscape:groupmode="layer"
     inkscape:label="Layer 1">
    <path
       inkscape:connector-curvature="0"
       id="path2987"
       d="m 80,332.36218 0,-220 -5,5"
       style="fill:none;stroke:#000000;stroke-width:2.0999999;stroke-linecap:butt;stroke-linejoin:miter;stroke-miterlimit:4;stroke-opacity:1;stroke-dasharray:none"
       sodipodi:nodetypes="ccc" />
    <path
       inkscape:connector-curvature="0"
       id="path2989"
       d="m 60,312.36218 240,0 -5,-5"
       style="fill:none;stroke:#000000;stroke-width:2.0999999;stroke-linecap:butt;stroke-linejoin:miter;stroke-miterlimit:4;stroke-opacity:1;stroke-dasharray:none"
       sodipodi:nodetypes="ccc" />
    <g
       id="g3007"
       transform="matrix(0.25717142,0,0,0.25717142,-11.781724,16.870848)">
      <g
         word-spacing="normal"
         letter-spacing="normal"
         font-size-adjust="none"
         font-stretch="normal"
         font-weight="normal"
         font-variant="normal"
         font-style="normal"
         stroke-miterlimit="10.433"
         xml:space="preserve"
         transform="matrix(1.0629921,0,0,-1.0629921,-186.02362,789.27165)"
         id="content"
         style="font-style:normal;font-variant:normal;font-weight:normal;font-stretch:normal;letter-spacing:normal;word-spacing:normal;text-anchor:start;fill:none;stroke:#000000;stroke-linecap:butt;stroke-linejoin:miter;stroke-miterlimit:10.43299961;stroke-opacity:1;stroke-dasharray:none;stroke-dashoffset:0"><path
           id="path3010"
           d="m 457.16,397.57 -0.01,-0.02 0,-0.03 -0.01,-0.03 0,-0.02 -0.01,-0.03 -0.01,-0.02 0,-0.02 -0.01,-0.03 0,-0.02 -0.01,-0.02 0,-0.02 0,-0.02 -0.01,-0.02 0,-0.02 -0.01,-0.04 -0.01,-0.03 0,-0.03 -0.01,-0.03 -0.01,-0.03 0,-0.03 -0.01,-0.02 0,-0.02 0,-0.03 -0.01,-0.02 0,-0.02 0,-0.01 0,-0.02 0,-0.01 -0.01,-0.02 0,-0.01 0,-0.02 0,-0.01 0,-0.01 0,-0.02 0,-0.02 0,-0.02 c 0,-0.74 0.55,-1.35 1.39,-1.35 1.05,0 1.64,0.91 1.75,1.05 0.23,0.45 1.84,7.13 3.19,12.52 0.98,-2 2.58,-3.35 4.92,-3.35 l -0.05,1.1 c -3.48,0 -4.28,3.98 -4.28,4.43 0,0.21 0.25,1.19 0.39,1.85 1.41,5.58 1.91,7.37 3,9.36 2.14,3.64 4.63,4.73 6.17,4.73 1.85,0 3.44,-1.44 3.44,-4.87 0,-2.75 -1.44,-8.33 -2.78,-10.77 -1.66,-3.14 -4.05,-4.73 -5.94,-4.73 h 0 l 0.05,-1.1 c 5.83,0 12.27,7.03 12.27,14.46 0,5.28 -3.3,8.1 -6.94,8.1 -4.83,0 -10.06,-4.98 -11.55,-11.06 z"
           inkscape:connector-curvature="0"
           style="fill:#000000;stroke-width:0" /></g>    </g>
    <g
       transform="matrix(0.25717142,0,0,0.25717142,226.00124,236.2995)"
       id="g3038">
      <g
         style="font-style:normal;font-variant:normal;font-weight:normal;font-stretch:normal;letter-spacing:normal;word-spacing:normal;text-anchor:start;fill:none;stroke:#000000;stroke-linecap:butt;stroke-linejoin:miter;stroke-miterlimit:10.43299961;stroke-opacity:1;stroke-dasharray:none;stroke-dashoffset:0"
         id="g3040"
         transform="matrix(1.0629921,0,0,-1.0629921,-186.02362,789.27165)"
         xml:space="preserve"
         stroke-miterlimit="10.433"
         font-style="normal"
         font-variant="normal"
         font-weight="normal"
         font-stretch="normal"
         font-size-adjust="none"
         letter-spacing="normal"
         word-spacing="normal"><path
           style="fill:#000000;stroke-width:0"
           inkscape:connector-curvature="0"
           d="m 493.38,440.82 0,0.02 0,0.02 0,0.01 -0.01,0.02 0,0.02 0,0.02 -0.01,0.02 0,0.02 -0.01,0.02 -0.01,0.02 -0.01,0.02 0,0.02 -0.02,0.02 -0.01,0.02 -0.01,0.02 -0.01,0.02 -0.02,0.02 -0.02,0.02 -0.02,0.02 -0.02,0.02 -0.02,0.01 -0.02,0.02 -0.03,0.01 -0.02,0.02 -0.03,0.01 -0.01,0.01 -0.02,0 -0.01,0.01 -0.02,0 -0.02,0.01 -0.01,0 -0.02,0 -0.02,0.01 -0.02,0 -0.02,0 -0.02,0 -0.02,0 -0.02,0 -0.02,0 c -0.14,0 -0.2,-0.04 -0.75,-0.59 l -3.48,-3.84 c -0.44,0.7 -2.74,4.43 -8.27,4.43 -11.11,0 -22.33,-11.01 -22.33,-22.56 0,-8.23 5.89,-13.65 13.52,-13.65 4.33,0 8.11,1.98 10.75,4.28 4.64,4.09 5.48,8.62 5.48,8.76 0,0.5 -0.5,0.5 -0.59,0.5 -0.3,0 -0.55,-0.09 -0.66,-0.5 -0.43,-1.44 -1.59,-4.98 -5.03,-7.87 -3.43,-2.78 -6.58,-3.63 -9.15,-3.63 -4.49,0 -9.77,2.6 -9.77,10.36 0,2.85 1.05,10.91 6.02,16.74 3.04,3.54 7.73,6.03 12.15,6.03 5.1,0 8.03,-3.83 8.03,-9.61 0,-2 -0.15,-2.05 -0.15,-2.55 0,-0.5 0.54,-0.5 0.75,-0.5 0.64,0 0.64,0.11 0.89,1 z"
           id="path3042" /></g>    </g>
    <g
       transform="matrix(0.25717142,0,0,0.25717142,90.684606,251.60439)"
       id="g3144">
      <g
         style="font-style:normal;font-variant:normal;font-weight:normal;font-stretch:normal;letter-spacing:normal;word-spacing:normal;text-anchor:start;fill:none;stroke:#000000;stroke-linecap:butt;stroke-linejoin:miter;stroke-miterlimit:10.43299961;stroke-opacity:1;stroke-dasharray:none;stroke-dashoffset:0"
         id="g3146"
         transform="matrix(1.0629921,0,0,-1.0629921,-186.02362,789.27165)"
         xml:space="preserve"
         stroke-miterlimit="10.433"
         font-style="normal"
         font-variant="normal"
         font-weight="normal"
         font-stretch="normal"
         font-size-adjust="none"
         letter-spacing="normal"
         word-spacing="normal"><path
           style="fill:#000000;stroke-width:0"
           inkscape:connector-curvature="0"
           d="m 528.88,437.82 h 3.72 c 2.66,0 3.11,-0.42 3.11,-1.56 0,-0.53 0,-0.6 -0.25,-1.58 -0.06,-0.2 -0.11,-0.31 -0.11,-0.41 0,-0.36 0.25,-0.53 0.6,-0.53 0.45,0 0.5,0.17 0.67,0.8 l 1.87,7.39 c 0.03,0.11 0.14,0.62 0.14,0.7 0,0.35 -0.25,0.52 -0.59,0.52 -0.49,0 -0.52,-0.2 -0.69,-0.83 -0.7,-2.72 -1.72,-3.25 -4.67,-3.25 h -3.48 l 2.18,8.75 c 0.28,1.08 0.32,1.19 1.78,1.19 h 5.33 c 4.64,0 5.52,-1.11 5.52,-4.02 0,-1.14 -0.14,-1.87 -0.14,-2.15 0,-0.29 0.09,-0.6 0.59,-0.6 0.52,0 0.55,0.31 0.63,0.91 l 0.62,6.06 c 0.09,1.05 -0.14,1.05 -1.01,1.05 h -18.61 c -0.66,0 -1.11,0 -1.11,-0.77 0,-0.48 0.42,-0.48 1.11,-0.48 0.04,0 0.7,0 1.32,-0.08 0.74,-0.06 0.8,-0.13 0.8,-0.48 0,-0.24 -0.09,-0.6 -0.14,-0.77 l -4.56,-18.22 c -0.35,-1.36 -0.38,-1.61 -3.1,-1.61 -0.59,0 -1.04,0 -1.04,-0.73 0,-0.35 0.23,-0.52 0.56,-0.52 1,0 3.58,0.14 4.59,0.14 l 2.69,-0.03 c 0.91,0 1.88,-0.11 2.75,-0.11 0.24,0 0.77,0 0.77,0.77 0,0.48 -0.43,0.48 -1.22,0.48 -0.08,0 -0.94,0 -1.81,0.08 -0.74,0.06 -1.08,0.09 -1.08,0.59 0,0.14 0,0.24 0.09,0.63 z"
           id="path3148" /><path
           style="fill:#000000;stroke-width:0"
           inkscape:connector-curvature="0"
           d="m 558.58,449.74 0,0.01 0.01,0 0,0 0,0.01 0,0 0,0.01 0,0.01 0.01,0 0,0.01 0,0.01 0.01,0.01 0,0.02 0.01,0.02 0,0.02 0.01,0.02 0,0.02 0.01,0.02 0.01,0.03 0,0.02 0.01,0.05 0.02,0.04 0,0.03 0.01,0.02 0,0.02 0.01,0.02 0,0.02 0.01,0.02 0,0.02 0,0.01 0,0.01 0.01,0.01 0,0 0,0.01 0,0 0,0.01 0,0 0,0.01 0,0 0,0 0,0.01 0,0 c 0,0.19 -0.14,0.5 -0.56,0.5 -0.69,0 -3.58,-0.28 -4.45,-0.36 -0.28,-0.03 -0.77,-0.06 -0.77,-0.8 0,-0.48 0.49,-0.48 0.91,-0.48 1.67,0 1.67,-0.25 1.67,-0.53 0,-0.24 -0.08,-0.46 -0.14,-0.77 l -4.92,-19.72 c -0.18,-0.62 -0.18,-0.68 -0.18,-0.76 0,-0.52 0.43,-1.11 1.19,-1.11 0.94,0 1.39,0.69 1.61,1.45 0.07,0.14 1.57,6.28 1.7,6.77 2.47,-0.25 4.46,-1.05 4.46,-2.86 0,-0.17 0,-0.35 -0.06,-0.69 -0.15,-0.53 -0.15,-0.7 -0.15,-1.09 0,-2.47 2.02,-3.58 3.69,-3.58 3.39,0 4.44,5.29 4.44,5.33 0,0.45 -0.45,0.45 -0.56,0.45 -0.49,0 -0.53,-0.17 -0.7,-0.84 -0.41,-1.5 -1.37,-3.97 -3.07,-3.97 -0.93,0 -1.22,0.87 -1.22,1.81 0,0.59 0,0.66 0.21,1.56 0.04,0.11 0.18,0.7 0.18,1.1 0,3.09 -4.18,3.57 -5.65,3.68 1.01,0.63 2.3,1.78 2.89,2.3 1.78,1.67 3.53,3.31 5.47,3.31 0.42,0 0.87,-0.11 1.15,-0.45 -1.5,-0.25 -1.81,-1.42 -1.81,-1.95 0,-0.77 0.6,-1.29 1.39,-1.29 0.96,0 1.99,0.77 1.99,2.22 0,1.16 -0.83,2.44 -2.68,2.44 -1.98,0 -3.79,-1.42 -5.57,-3.06 -1.47,-1.39 -2.61,-2.47 -4.05,-3.06 z"
           id="path3150" /><path
           style="fill:#000000;stroke-width:0"
           inkscape:connector-curvature="0"
           d="m 573.66,424 -0.01,-0.06 -0.02,-0.07 -0.02,-0.06 -0.01,-0.07 -0.02,-0.07 -0.02,-0.07 -0.03,-0.14 -0.04,-0.14 -0.03,-0.15 -0.04,-0.14 -0.01,-0.07 -0.02,-0.07 -0.02,-0.07 -0.01,-0.07 -0.02,-0.06 -0.01,-0.06 -0.01,-0.06 -0.02,-0.06 -0.01,-0.05 -0.01,-0.06 -0.01,-0.04 -0.01,-0.04 0,-0.04 -0.01,-0.04 -0.01,-0.03 0,-0.02 0,-0.02 0,-0.01 0,-0.01 c 0,-0.54 0.44,-0.87 0.92,-0.87 0.37,0 0.92,0.2 1.19,0.83 0.03,0.12 0.33,1.29 0.48,1.93 0.85,3.38 0.85,3.42 0.89,3.52 0.33,0.67 2.11,4.15 5.16,4.15 1.22,0 1.75,-0.67 1.75,-1.78 0,-1.42 -1.05,-3.98 -1.63,-5.4 -0.12,-0.3 -0.25,-0.63 -0.25,-1.05 0,-1.3 1.25,-2.2 2.72,-2.2 2.66,0 4.03,3.25 4.03,3.87 0,0.35 -0.42,0.35 -0.51,0.35 -0.44,0 -0.46,-0.1 -0.61,-0.58 -0.47,-1.49 -1.61,-2.78 -2.81,-2.78 -0.57,0 -0.75,0.39 -0.75,0.93 0,0.54 0.11,0.79 0.33,1.33 0.42,1 1.57,3.83 1.57,5.21 0,1.84 -1.32,2.96 -3.69,2.96 -2.28,0 -3.84,-1.37 -4.71,-2.46 -0.13,2.04 -2.11,2.46 -3.04,2.46 -2.5,0 -3.21,-3.81 -3.21,-3.86 0,-0.35 0.4,-0.35 0.53,-0.35 0.42,0 0.47,0.15 0.56,0.48 0.37,1.44 0.95,2.87 2,2.87 0.84,0 1.02,-0.79 1.02,-1.31 0,-0.34 -0.25,-1.29 -0.4,-1.94 -0.18,-0.67 -0.42,-1.7 -0.54,-2.25 z"
           id="path3152" /><polyline
           style="fill:#000000;fill-rule:nonzero;stroke-width:0"
           points="462,418 649.2,418 649.2,420.04 462,420.04 "
           id="polyline3154" /><path
           style="fill:#000000;stroke-width:0"
           inkscape:connector-curvature="0"
           d="m 486.43,408.7 0.12,0.17 0.12,0.16 0.12,0.17 0.12,0.15 0.11,0.15 0.12,0.15 0.12,0.13 0.12,0.14 0.12,0.13 0.12,0.12 0.12,0.11 0.12,0.12 0.12,0.1 0.12,0.1 0.13,0.1 0.12,0.09 0.13,0.09 0.13,0.08 0.13,0.07 0.13,0.07 0.14,0.07 0.14,0.06 0.14,0.06 0.15,0.05 0.14,0.05 0.16,0.04 0.15,0.04 0.16,0.03 0.16,0.03 0.17,0.02 0.17,0.02 0.17,0.02 c 0.42,0.03 0.8,0.06 0.8,0.76 0,0.11 -0.06,0.49 -0.48,0.49 -0.85,0 -1.93,-0.14 -2.8,-0.14 -1.11,0 -2.58,0.14 -3.61,0.14 -0.33,0 -0.7,-0.11 -0.7,-0.77 0,-0.45 0.48,-0.48 0.62,-0.48 1.11,-0.08 1.42,-0.49 1.42,-1.02 0,-0.48 -0.23,-0.83 -0.62,-1.39 l -11.42,-16.86 -3.18,17.8 c -0.06,0.31 -0.06,0.39 -0.06,0.53 0,0.94 1.94,0.94 2.19,0.94 0.59,0 1.05,0 1.05,0.76 0,0.03 -0.04,0.49 -0.6,0.49 -1.01,0 -3.48,-0.14 -4.5,-0.14 -0.86,0 -2.98,0.14 -3.86,0.14 -0.31,0 -0.7,-0.11 -0.7,-0.77 0,-0.48 0.48,-0.48 0.87,-0.48 1.96,0 1.99,-0.22 2.16,-1.13 l 3.8,-21.17 c 0.14,-0.74 0.17,-0.95 0.84,-0.95 0.66,0 0.83,0.25 1.19,0.76 z"
           id="path3156" /><path
           style="fill:#000000;stroke-width:0"
           inkscape:connector-curvature="0"
           d="m 504.59,412.18 0,0 0,0.01 0,0 0,0.01 0,0 0.01,0.01 0,0 0,0.01 0,0.01 0.01,0 0,0.02 0.01,0.02 0,0.02 0.01,0.02 0,0.02 0.01,0.02 0,0.02 0.01,0.02 0.01,0.03 0.01,0.04 0.01,0.05 0.01,0.02 0,0.03 0.01,0.02 0,0.02 0.01,0.02 0,0.02 0,0.01 0.01,0.02 0,0.01 0,0 0,0.01 0,0.01 0,0 0,0.01 0.01,0 0,0.01 0,0 0,0 0,0.01 0,0 c 0,0.18 -0.14,0.5 -0.57,0.5 -0.68,0 -3.57,-0.28 -4.45,-0.36 -0.28,-0.03 -0.76,-0.07 -0.76,-0.8 0,-0.48 0.48,-0.48 0.9,-0.48 1.67,0 1.67,-0.25 1.67,-0.54 0,-0.23 -0.07,-0.45 -0.14,-0.76 l -4.92,-19.72 c -0.17,-0.62 -0.17,-0.69 -0.17,-0.77 0,-0.51 0.42,-1.1 1.19,-1.1 0.93,0 1.39,0.68 1.61,1.45 0.06,0.14 1.56,6.28 1.7,6.76 2.47,-0.25 4.45,-1.04 4.45,-2.86 0,-0.17 0,-0.34 -0.06,-0.68 -0.14,-0.53 -0.14,-0.71 -0.14,-1.1 0,-2.47 2.01,-3.57 3.69,-3.57 3.39,0 4.43,5.29 4.43,5.32 0,0.46 -0.45,0.46 -0.56,0.46 -0.48,0 -0.53,-0.18 -0.7,-0.85 -0.41,-1.5 -1.36,-3.97 -3.06,-3.97 -0.94,0 -1.22,0.88 -1.22,1.82 0,0.59 0,0.65 0.2,1.56 0.05,0.11 0.19,0.7 0.19,1.09 0,3.1 -4.19,3.58 -5.66,3.69 1.02,0.63 2.3,1.78 2.89,2.3 1.78,1.67 3.53,3.31 5.47,3.31 0.42,0 0.88,-0.11 1.16,-0.45 -1.5,-0.25 -1.82,-1.43 -1.82,-1.96 0,-0.76 0.6,-1.28 1.4,-1.28 0.95,0 1.98,0.77 1.98,2.22 0,1.16 -0.83,2.44 -2.67,2.44 -1.99,0 -3.8,-1.42 -5.58,-3.06 -1.47,-1.39 -2.61,-2.47 -4.05,-3.07 z"
           id="path3158" /><path
           style="fill:#000000;stroke-width:0"
           inkscape:connector-curvature="0"
           d="m 528.22,386.17 -0.01,-0.05 -0.01,-0.05 -0.01,-0.06 -0.02,-0.05 -0.01,-0.06 -0.02,-0.06 -0.02,-0.11 -0.03,-0.12 -0.03,-0.13 -0.03,-0.11 -0.03,-0.12 -0.01,-0.06 -0.01,-0.05 -0.01,-0.06 -0.02,-0.05 -0.01,-0.05 -0.01,-0.05 -0.01,-0.05 0,-0.04 -0.01,-0.04 -0.01,-0.04 -0.01,-0.04 0,-0.03 -0.01,-0.03 0,-0.03 0,-0.02 0,-0.02 c 0,-0.54 0.45,-0.87 0.92,-0.87 0.38,0 0.92,0.2 1.2,0.83 0.02,0.12 0.32,1.29 0.47,1.93 0.85,3.38 0.85,3.43 0.89,3.52 0.33,0.67 2.13,4.16 5.16,4.16 1.22,0 1.75,-0.68 1.75,-1.78 0,-1.43 -1.05,-3.99 -1.62,-5.41 -0.13,-0.3 -0.25,-0.63 -0.25,-1.05 0,-1.3 1.25,-2.2 2.71,-2.2 2.67,0 4.04,3.25 4.04,3.87 0,0.35 -0.43,0.35 -0.52,0.35 -0.42,0 -0.45,-0.1 -0.6,-0.58 -0.48,-1.48 -1.62,-2.78 -2.82,-2.78 -0.56,0 -0.74,0.39 -0.74,0.94 0,0.53 0.1,0.78 0.31,1.32 0.43,1 1.58,3.83 1.58,5.21 0,1.84 -1.33,2.97 -3.68,2.97 -2.32,0 -3.94,-1.43 -4.94,-2.75 -0.22,2.54 -2.69,2.75 -3.71,2.75 -2.45,0 -3.84,-1.54 -4.73,-2.47 -0.11,2.18 -2.39,2.47 -3.02,2.47 -2.5,0 -3.21,-3.82 -3.21,-3.86 0,-0.36 0.4,-0.36 0.53,-0.36 0.42,0 0.47,0.15 0.56,0.48 0.37,1.44 0.95,2.88 2,2.88 0.84,0 1.02,-0.8 1.02,-1.32 0,-0.34 -0.25,-1.29 -0.4,-1.93 -0.18,-0.68 -0.42,-1.71 -0.54,-2.25 l -0.58,-2.22 c -0.16,-0.63 -0.42,-1.72 -0.42,-1.85 0,-0.54 0.44,-0.87 0.92,-0.87 0.37,0 0.92,0.2 1.19,0.83 0.03,0.12 0.33,1.29 0.48,1.93 0.1,0.41 0.38,1.47 0.44,1.72 0.13,0.57 0.28,1.11 0.41,1.68 0.04,0.1 0.93,1.92 2.15,3 0.41,0.34 1.45,1.28 3.08,1.28 1.27,0 1.74,-0.72 1.74,-1.78 0,-0.55 -0.25,-1.55 -0.46,-2.33 z"
           id="path3160" /><path
           style="fill:#000000;stroke-width:0"
           inkscape:connector-curvature="0"
           d="m 559.79,392.08 0.01,0.05 0.01,0.05 0.02,0.05 0.01,0.06 0.02,0.06 0.01,0.05 0.03,0.12 0.03,0.12 0.03,0.13 0.03,0.12 0.03,0.12 0.02,0.05 0.01,0.06 0.02,0.05 0.01,0.06 0.01,0.05 0.01,0.05 0.01,0.04 0.01,0.05 0.01,0.04 0.01,0.03 0.01,0.04 0,0.03 0.01,0.03 0,0.02 0,0.02 0,0 0,0.01 c 0,0.42 -0.31,0.88 -0.92,0.88 -0.44,0 -1.04,-0.3 -1.23,-1 -0.49,0.64 -1.42,1.5 -3,1.5 v -0.86 c 1.12,0 2.2,-0.68 2.59,-2.16 l -1.14,-4.69 c -0.11,-0.37 -0.11,-0.42 -0.55,-0.92 -0.92,-1.05 -2.21,-1.81 -3.46,-1.81 -0.88,0 -2.19,0.47 -2.19,2.53 0,1.16 0.59,3.77 1.47,5.06 0.97,1.38 2.23,1.99 3.28,1.99 v 0.86 c -3.5,0 -7,-3.43 -7,-6.96 0,-2.54 1.87,-4.34 4.36,-4.34 2.04,0 3.64,1.45 3.93,1.75 0.46,-1.22 1.83,-1.75 2.94,-1.75 1,0 1.67,0.58 2.21,1.4 0.64,0.97 0.98,2.29 0.98,2.47 0,0.35 -0.42,0.35 -0.52,0.35 -0.45,0 -0.46,-0.16 -0.59,-0.55 -0.45,-1.84 -1.09,-2.81 -1.97,-2.81 -0.7,0 -1,0.54 -1,1.31 0,0.38 0.25,1.33 0.41,2 z"
           id="path3162" /><path
           style="fill:#000000;stroke-width:0"
           inkscape:connector-curvature="0"
           d="m 580.18,393.77 -0.05,-0.02 -0.05,-0.02 -0.05,-0.02 -0.05,-0.02 -0.04,-0.02 -0.05,-0.02 -0.04,-0.02 -0.04,-0.03 -0.04,-0.02 -0.04,-0.02 -0.04,-0.03 -0.03,-0.03 -0.04,-0.02 -0.03,-0.03 -0.03,-0.03 -0.04,-0.03 -0.05,-0.05 -0.06,-0.06 -0.04,-0.06 -0.05,-0.07 -0.04,-0.06 -0.03,-0.06 -0.04,-0.06 -0.02,-0.06 -0.03,-0.06 -0.02,-0.06 -0.02,-0.06 -0.02,-0.05 -0.01,-0.05 -0.01,-0.05 -0.01,-0.05 -0.01,-0.05 -0.01,-0.04 0,-0.03 0,-0.03 0,-0.03 -0.01,-0.02 0,-0.01 0,-0.01 0,0 0,-0.01 0,0 0,0 c 0,-0.42 0.3,-1.02 1.11,-1.02 0.7,0 1.55,0.6 1.55,1.69 0,1.47 -1.64,2.05 -2.95,2.05 -1.63,0 -2.68,-1.05 -3.18,-1.71 -0.82,1.42 -2.42,1.71 -3.31,1.71 -3.11,0 -4.87,-2.94 -4.87,-3.86 0,-0.36 0.39,-0.36 0.51,-0.36 0.22,0 0.42,0.03 0.53,0.29 0.74,2.46 2.79,3.07 3.74,3.07 0.81,0 1.76,-0.35 1.76,-1.66 0,-0.62 -0.45,-2.34 -1.29,-5.66 -0.38,-1.42 -1.52,-2.26 -2.6,-2.26 -0.17,0 -0.89,0 -1.48,0.39 1.11,0.41 1.11,1.34 1.11,1.45 0,0.72 -0.55,1.05 -1.1,1.05 -0.62,0 -1.54,-0.5 -1.54,-1.7 0,-1.52 1.7,-2.05 2.97,-2.05 1.37,0 2.48,0.8 3.09,1.7 0.98,-1.5 2.58,-1.7 3.36,-1.7 3.14,0 4.9,2.97 4.9,3.87 0,0.35 -0.42,0.35 -0.51,0.35 -0.44,0 -0.49,-0.16 -0.56,-0.38 -0.72,-2.25 -2.64,-2.98 -3.74,-2.98 -0.75,0 -1.76,0.26 -1.76,1.65 0,0.32 0,0.49 0.2,1.33 0.42,1.75 1.09,4.52 1.3,4.96 0.31,0.65 1.14,1.64 2.4,1.64 0.08,0 0.92,0 1.5,-0.39 z"
           id="path3164" /><path
           style="fill:#000000;stroke-width:0"
           inkscape:connector-curvature="0"
           d="m 612.84,396.91 0.06,0 0.05,0 0.12,0.01 0.11,0 0.06,0 0.06,0.01 0.06,0 0.06,0.01 0.05,0.01 0.06,0.01 0.06,0.01 0.05,0.01 0.06,0.02 0.05,0.02 0.05,0.02 0.05,0.02 0.05,0.03 0.04,0.03 0.04,0.03 0.04,0.04 0.04,0.04 0.02,0.02 0.02,0.02 0.01,0.02 0.02,0.03 0.01,0.02 0.01,0.03 0.02,0.02 0.01,0.03 0.01,0.03 0.01,0.03 0.01,0.03 0,0.03 0.01,0.04 0,0.03 0.01,0.03 0,0.04 0,0.04 0,0.04 c 0,0.86 -0.79,0.86 -1.39,0.86 h -20.76 c -0.56,0 -1.39,0 -1.39,-0.83 0,-0.88 0.79,-0.88 1.39,-0.88 z"
           id="path3166" /><path
           style="fill:#000000;stroke-width:0"
           inkscape:connector-curvature="0"
           d="m 629.92,400.26 h 3.72 c 2.66,0 3.11,-0.42 3.11,-1.56 0,-0.54 0,-0.6 -0.25,-1.58 -0.06,-0.21 -0.11,-0.32 -0.11,-0.41 0,-0.36 0.25,-0.53 0.59,-0.53 0.46,0 0.5,0.17 0.68,0.8 l 1.87,7.39 c 0.03,0.11 0.14,0.62 0.14,0.7 0,0.34 -0.25,0.52 -0.59,0.52 -0.49,0 -0.52,-0.21 -0.69,-0.83 -0.7,-2.72 -1.72,-3.25 -4.67,-3.25 h -3.49 l 2.19,8.75 c 0.28,1.08 0.31,1.19 1.78,1.19 h 5.33 c 4.64,0 5.52,-1.11 5.52,-4.02 0,-1.14 -0.14,-1.88 -0.14,-2.16 0,-0.28 0.09,-0.59 0.59,-0.59 0.52,0 0.55,0.31 0.62,0.91 l 0.63,6.06 c 0.09,1.05 -0.14,1.05 -1.02,1.05 h -18.61 c -0.65,0 -1.1,0 -1.1,-0.77 0,-0.48 0.42,-0.48 1.1,-0.48 0.05,0 0.71,0 1.33,-0.08 0.74,-0.07 0.8,-0.13 0.8,-0.49 0,-0.23 -0.09,-0.59 -0.14,-0.76 l -4.56,-18.22 c -0.35,-1.36 -0.38,-1.61 -3.1,-1.61 -0.59,0 -1.04,0 -1.04,-0.74 0,-0.34 0.23,-0.51 0.56,-0.51 1,0 3.58,0.14 4.59,0.14 l 2.69,-0.03 c 0.91,0 1.87,-0.11 2.75,-0.11 0.23,0 0.77,0 0.77,0.76 0,0.49 -0.43,0.49 -1.22,0.49 -0.08,0 -0.94,0 -1.82,0.08 -0.73,0.06 -1.07,0.09 -1.07,0.59 0,0.14 0,0.24 0.09,0.63 z"
           id="path3168" /></g>    </g>
    <path
       inkscape:connector-curvature="0"
       id="path3207"
       d="m 195,322.36218 0,-200"
       style="fill:none;stroke:#000000;stroke-width:1.70000005;stroke-linecap:butt;stroke-linejoin:miter;stroke-miterlimit:4;stroke-opacity:1;stroke-dasharray:5.1, 5.1;stroke-dashoffset:0"
       sodipodi:nodetypes="cc" />
    <path
       inkscape:connector-curvature="0"
       id="path3207-8"
       d="m 80,312.36218 210,-190"
       style="fill:none;stroke:#ff0000;stroke-width:1.70000005000000010;stroke-linecap:butt;stroke-linejoin:miter;stroke-miterlimit:4;stroke-opacity:1;stroke-dasharray:5.09999999999999964, 5.09999999999999964;stroke-dashoffset:0"
       sodipodi:nodetypes="cc" />
    <path
       transform="matrix(1.1936032,0,0,1.1936032,-40.024848,-79.14705)"
       d="m 198.89917,240.70461 a 2.1088212,2.1088212 0 1 1 -4.21765,0 2.1088212,2.1088212 0 1 1 4.21765,0 z"
       sodipodi:ry="2.1088212"
       sodipodi:rx="2.1088212"
       sodipodi:cy="240.70461"
       sodipodi:cx="196.79034"
       id="path3979"
       style="fill:#ff0000;stroke:#70706f;stroke-width:1;stroke-miterlimit:4;stroke-opacity:1;stroke-dasharray:none;stroke-dashoffset:0"
       sodipodi:type="arc" />
    <path
       transform="matrix(1.1936032,0,0,1.1936032,-155.08754,25.245925)"
       d="m 198.89917,240.70461 a 2.1088212,2.1088212 0 1 1 -4.21765,0 2.1088212,2.1088212 0 1 1 4.21765,0 z"
       sodipodi:ry="2.1088212"
       sodipodi:rx="2.1088212"
       sodipodi:cy="240.70461"
       sodipodi:cx="196.79034"
       id="path3979-7"
       style="fill:#ff0000;stroke:#70706f;stroke-width:1;stroke-miterlimit:4;stroke-opacity:1;stroke-dasharray:none;stroke-dashoffset:0"
       sodipodi:type="arc" />
  </g>
</svg>
