<?xml version="1.0" encoding="UTF-8" standalone="no"?>
<!-- Created with Inkscape (http://www.inkscape.org/) -->

<svg
   xmlns:dc="http://purl.org/dc/elements/1.1/"
   xmlns:cc="http://creativecommons.org/ns#"
   xmlns:rdf="http://www.w3.org/1999/02/22-rdf-syntax-ns#"
   xmlns:svg="http://www.w3.org/2000/svg"
   xmlns="http://www.w3.org/2000/svg"
   xmlns:sodipodi="http://sodipodi.sourceforge.net/DTD/sodipodi-0.dtd"
   xmlns:inkscape="http://www.inkscape.org/namespaces/inkscape"
   width="744.09448819"
   height="1052.3622047"
   id="svg2"
   version="1.1"
   inkscape:version="0.48.3.1 r9886"
   sodipodi:docname="drawing.svg"
   inkscape:export-filename="/home/pf4d/Documents/killer_yeast/doc/images/drawing.png"
   inkscape:export-xdpi="300"
   inkscape:export-ydpi="300">
  <sodipodi:namedview
     id="base"
     pagecolor="#ffffff"
     bordercolor="#666666"
     borderopacity="1.0"
     inkscape:pageopacity="0.0"
     inkscape:pageshadow="2"
     inkscape:zoom="1.979899"
     inkscape:cx="205.01812"
     inkscape:cy="828.83581"
     inkscape:document-units="px"
     inkscape:current-layer="svg2"
     showgrid="true"
     inkscape:snap-global="false"
     showguides="true"
     inkscape:guide-bbox="true"
     inkscape:window-width="1190"
     inkscape:window-height="800"
     inkscape:window-x="178"
     inkscape:window-y="266"
     inkscape:window-maximized="0">
    <inkscape:grid
       type="xygrid"
       id="grid2985" />
  </sodipodi:namedview>
  <defs
     id="defs4" />
  <metadata
     id="metadata7">
    <rdf:RDF>
      <cc:Work
         rdf:about="">
        <dc:format>image/svg+xml</dc:format>
        <dc:type
           rdf:resource="http://purl.org/dc/dcmitype/StillImage" />
        <dc:title />
      </cc:Work>
    </rdf:RDF>
  </metadata>
  <g
     inkscape:label="Layer 1"
     inkscape:groupmode="layer"
     id="layer1">
    <path
       sodipodi:nodetypes="ccc"
       style="fill:none;stroke:#000000;stroke-width:2.0999999;stroke-linecap:butt;stroke-linejoin:miter;stroke-miterlimit:4;stroke-opacity:1;stroke-dasharray:none"
       d="m 80,332.36218 0,-220 -5,5"
       id="path2987"
       inkscape:connector-curvature="0" />
    <path
       sodipodi:nodetypes="ccc"
       style="fill:none;stroke:#000000;stroke-width:2.0999999;stroke-linecap:butt;stroke-linejoin:miter;stroke-miterlimit:4;stroke-opacity:1;stroke-dasharray:none"
       d="m 60,312.36218 240,0 -5,-5"
       id="path2989"
       inkscape:connector-curvature="0" />
    <g
       transform="matrix(0.25717142,0,0,0.25717142,-11.781724,16.870848)"
       id="g3007">
      <g
         style="font-style:normal;font-variant:normal;font-weight:normal;font-stretch:normal;letter-spacing:normal;word-spacing:normal;text-anchor:start;fill:none;stroke:#000000;stroke-linecap:butt;stroke-linejoin:miter;stroke-miterlimit:10.43299961;stroke-opacity:1;stroke-dasharray:none;stroke-dashoffset:0"
         id="content"
         transform="matrix(1.0629921,0,0,-1.0629921,-186.02362,789.27165)"
         xml:space="preserve"
         stroke-miterlimit="10.433"
         font-style="normal"
         font-variant="normal"
         font-weight="normal"
         font-stretch="normal"
         font-size-adjust="none"
         letter-spacing="normal"
         word-spacing="normal"><path
           style="fill:#000000;stroke-width:0"
           inkscape:connector-curvature="0"
           d="m 457.16,397.57 -0.01,-0.02 0,-0.03 -0.01,-0.03 0,-0.02 -0.01,-0.03 -0.01,-0.02 0,-0.02 -0.01,-0.03 0,-0.02 -0.01,-0.02 0,-0.02 0,-0.02 -0.01,-0.02 0,-0.02 -0.01,-0.04 -0.01,-0.03 0,-0.03 -0.01,-0.03 -0.01,-0.03 0,-0.03 -0.01,-0.02 0,-0.02 0,-0.03 -0.01,-0.02 0,-0.02 0,-0.01 0,-0.02 0,-0.01 -0.01,-0.02 0,-0.01 0,-0.02 0,-0.01 0,-0.01 0,-0.02 0,-0.02 0,-0.02 c 0,-0.74 0.55,-1.35 1.39,-1.35 1.05,0 1.64,0.91 1.75,1.05 0.23,0.45 1.84,7.13 3.19,12.52 0.98,-2 2.58,-3.35 4.92,-3.35 l -0.05,1.1 c -3.48,0 -4.28,3.98 -4.28,4.43 0,0.21 0.25,1.19 0.39,1.85 1.41,5.58 1.91,7.37 3,9.36 2.14,3.64 4.63,4.73 6.17,4.73 1.85,0 3.44,-1.44 3.44,-4.87 0,-2.75 -1.44,-8.33 -2.78,-10.77 -1.66,-3.14 -4.05,-4.73 -5.94,-4.73 h 0 l 0.05,-1.1 c 5.83,0 12.27,7.03 12.27,14.46 0,5.28 -3.3,8.1 -6.94,8.1 -4.83,0 -10.06,-4.98 -11.55,-11.06 z"
           id="path3010" /></g>    </g>
    <g
       id="g3038"
       transform="matrix(0.25717142,0,0,0.25717142,226.00124,236.2995)">
      <g
         word-spacing="normal"
         letter-spacing="normal"
         font-size-adjust="none"
         font-stretch="normal"
         font-weight="normal"
         font-variant="normal"
         font-style="normal"
         stroke-miterlimit="10.433"
         xml:space="preserve"
         transform="matrix(1.0629921,0,0,-1.0629921,-186.02362,789.27165)"
         id="g3040"
         style="font-style:normal;font-variant:normal;font-weight:normal;font-stretch:normal;letter-spacing:normal;word-spacing:normal;text-anchor:start;fill:none;stroke:#000000;stroke-linecap:butt;stroke-linejoin:miter;stroke-miterlimit:10.43299961;stroke-opacity:1;stroke-dasharray:none;stroke-dashoffset:0"><path
           id="path3042"
           d="m 493.38,440.82 0,0.02 0,0.02 0,0.01 -0.01,0.02 0,0.02 0,0.02 -0.01,0.02 0,0.02 -0.01,0.02 -0.01,0.02 -0.01,0.02 0,0.02 -0.02,0.02 -0.01,0.02 -0.01,0.02 -0.01,0.02 -0.02,0.02 -0.02,0.02 -0.02,0.02 -0.02,0.02 -0.02,0.01 -0.02,0.02 -0.03,0.01 -0.02,0.02 -0.03,0.01 -0.01,0.01 -0.02,0 -0.01,0.01 -0.02,0 -0.02,0.01 -0.01,0 -0.02,0 -0.02,0.01 -0.02,0 -0.02,0 -0.02,0 -0.02,0 -0.02,0 -0.02,0 c -0.14,0 -0.2,-0.04 -0.75,-0.59 l -3.48,-3.84 c -0.44,0.7 -2.74,4.43 -8.27,4.43 -11.11,0 -22.33,-11.01 -22.33,-22.56 0,-8.23 5.89,-13.65 13.52,-13.65 4.33,0 8.11,1.98 10.75,4.28 4.64,4.09 5.48,8.62 5.48,8.76 0,0.5 -0.5,0.5 -0.59,0.5 -0.3,0 -0.55,-0.09 -0.66,-0.5 -0.43,-1.44 -1.59,-4.98 -5.03,-7.87 -3.43,-2.78 -6.58,-3.63 -9.15,-3.63 -4.49,0 -9.77,2.6 -9.77,10.36 0,2.85 1.05,10.91 6.02,16.74 3.04,3.54 7.73,6.03 12.15,6.03 5.1,0 8.03,-3.83 8.03,-9.61 0,-2 -0.15,-2.05 -0.15,-2.55 0,-0.5 0.54,-0.5 0.75,-0.5 0.64,0 0.64,0.11 0.89,1 z"
           inkscape:connector-curvature="0"
           style="fill:#000000;stroke-width:0" /></g>    </g>
    <path
       sodipodi:nodetypes="cc"
       style="fill:none;stroke:#000000;stroke-width:1.70000005;stroke-linecap:butt;stroke-linejoin:miter;stroke-miterlimit:4;stroke-opacity:1;stroke-dasharray:5.1, 5.1;stroke-dashoffset:0"
       d="m 195,322.36218 0,-200"
       id="path3207"
       inkscape:connector-curvature="0" />
    <path
       sodipodi:nodetypes="cc"
       style="fill:none;stroke:#ff0000;stroke-width:1.70000005000000010;stroke-linecap:butt;stroke-linejoin:miter;stroke-miterlimit:4;stroke-opacity:1;stroke-dasharray:5.09999999999999964, 5.09999999999999964;stroke-dashoffset:0"
       d="m 80,312.36218 210,-190"
       id="path3207-8"
       inkscape:connector-curvature="0" />
    <path
       sodipodi:type="arc"
       style="fill:#ff0000;stroke:#70706f;stroke-width:1;stroke-miterlimit:4;stroke-opacity:1;stroke-dasharray:none;stroke-dashoffset:0"
       id="path3979"
       sodipodi:cx="196.79034"
       sodipodi:cy="240.70461"
       sodipodi:rx="2.1088212"
       sodipodi:ry="2.1088212"
       d="m 198.89917,240.70461 a 2.1088212,2.1088212 0 1 1 -4.21765,0 2.1088212,2.1088212 0 1 1 4.21765,0 z"
       transform="matrix(1.1936032,0,0,1.1936032,-40.024848,-79.14705)" />
    <path
       sodipodi:type="arc"
       style="fill:#ff0000;stroke:#70706f;stroke-width:1;stroke-miterlimit:4;stroke-opacity:1;stroke-dasharray:none;stroke-dashoffset:0"
       id="path3979-7"
       sodipodi:cx="196.79034"
       sodipodi:cy="240.70461"
       sodipodi:rx="2.1088212"
       sodipodi:ry="2.1088212"
       d="m 198.89917,240.70461 a 2.1088212,2.1088212 0 1 1 -4.21765,0 2.1088212,2.1088212 0 1 1 4.21765,0 z"
       transform="matrix(1.1936032,0,0,1.1936032,-155.08754,25.245925)" />
  </g>
  <g
     id="g3223"
     transform="matrix(0.23961789,0,0,0.23961789,97.580245,247.81786)">
    <g
       word-spacing="normal"
       letter-spacing="normal"
       font-size-adjust="none"
       font-stretch="normal"
       font-weight="normal"
       font-variant="normal"
       font-style="normal"
       stroke-miterlimit="10.433"
       xml:space="preserve"
       transform="matrix(1.0629921,0,0,-1.0629921,-186.02362,789.27165)"
       id="g3225"
       style="font-style:normal;font-variant:normal;font-weight:normal;font-stretch:normal;letter-spacing:normal;word-spacing:normal;text-anchor:start;fill:none;stroke:#000000;stroke-linecap:butt;stroke-linejoin:miter;stroke-miterlimit:10.43299961;stroke-opacity:1;stroke-dasharray:none;stroke-dashoffset:0"><polygon
         id="polygon3227"
         points="470.24,448.19 470.24,446.64 488.22,446.64 488.22,448.19 "
         style="fill:#000000;stroke-width:0" /><path
         id="path3229"
         d="m 493.38,440.82 0,0.02 0,0.02 0,0.01 -0.01,0.02 0,0.02 0,0.02 -0.01,0.02 0,0.02 -0.01,0.02 -0.01,0.02 -0.01,0.02 0,0.02 -0.02,0.02 -0.01,0.02 -0.01,0.02 -0.01,0.02 -0.02,0.02 -0.02,0.02 -0.02,0.02 -0.02,0.02 -0.02,0.01 -0.02,0.02 -0.03,0.01 -0.02,0.02 -0.03,0.01 -0.01,0.01 -0.02,0 -0.01,0.01 -0.02,0 -0.02,0.01 -0.01,0 -0.02,0 -0.02,0.01 -0.02,0 -0.02,0 -0.02,0 -0.02,0 -0.02,0 -0.02,0 c -0.14,0 -0.2,-0.04 -0.75,-0.59 l -3.48,-3.84 c -0.44,0.7 -2.74,4.43 -8.27,4.43 -11.11,0 -22.33,-11.01 -22.33,-22.56 0,-8.23 5.89,-13.65 13.52,-13.65 4.33,0 8.11,1.98 10.75,4.28 4.64,4.09 5.48,8.62 5.48,8.76 0,0.5 -0.5,0.5 -0.59,0.5 -0.3,0 -0.55,-0.09 -0.66,-0.5 -0.43,-1.44 -1.59,-4.98 -5.03,-7.87 -3.43,-2.78 -6.58,-3.63 -9.15,-3.63 -4.49,0 -9.77,2.6 -9.77,10.36 0,2.85 1.05,10.91 6.02,16.74 3.04,3.54 7.73,6.03 12.15,6.03 5.1,0 8.03,-3.83 8.03,-9.61 0,-2 -0.15,-2.05 -0.15,-2.55 0,-0.5 0.54,-0.5 0.75,-0.5 0.64,0 0.64,0.11 0.89,1 z"
         inkscape:connector-curvature="0"
         style="fill:#000000;stroke-width:0" /><path
         id="path3231"
         d="m 542.79,422.5 0.14,0 0.15,0 0.14,0 0.07,0.01 0.08,0 0.07,0.01 0.07,0.01 0.07,0.01 0.07,0.01 0.07,0.01 0.06,0.02 0.07,0.02 0.06,0.02 0.06,0.02 0.06,0.03 0.06,0.03 0.05,0.04 0.05,0.03 0.05,0.05 0.04,0.04 0.04,0.05 0.02,0.03 0.02,0.03 0.01,0.02 0.02,0.03 0.01,0.03 0.01,0.04 0.02,0.03 0.01,0.04 0.01,0.03 0.01,0.04 0,0.04 0.01,0.04 0,0.04 0.01,0.04 0,0.04 0,0.05 c 0,1 -0.95,1 -1.64,1 H 513 c -0.71,0 -1.64,0 -1.64,-1 0,-0.98 0.93,-0.98 1.68,-0.98 z"
         inkscape:connector-curvature="0"
         style="fill:#000000;stroke-width:0" /><path
         id="path3233"
         d="m 542.84,412.82 0.07,0 0.06,0 0.14,0.01 0.14,0 0.07,0 0.07,0.01 0.07,0.01 0.06,0 0.07,0.01 0.07,0.02 0.07,0.01 0.06,0.02 0.07,0.02 0.06,0.02 0.06,0.02 0.05,0.03 0.06,0.03 0.05,0.04 0.05,0.04 0.05,0.04 0.04,0.05 0.02,0.02 0.02,0.03 0.02,0.02 0.02,0.03 0.01,0.03 0.02,0.03 0.01,0.03 0.01,0.03 0.02,0.04 0.01,0.03 0.01,0.04 0.01,0.04 0,0.04 0.01,0.04 0,0.04 0.01,0.04 0,0.05 0,0.04 c 0,1 -0.95,1 -1.69,1 h -29.75 c -0.75,0 -1.68,0 -1.68,-1 0,-1 0.93,-1 1.64,-1 z"
         inkscape:connector-curvature="0"
         style="fill:#000000;stroke-width:0" /><path
         id="path3235"
         d="m 597.76,436.98 h 3.72 c 2.66,0 3.11,-0.42 3.11,-1.56 0,-0.53 0,-0.6 -0.25,-1.58 -0.06,-0.2 -0.11,-0.31 -0.11,-0.41 0,-0.36 0.25,-0.53 0.59,-0.53 0.46,0 0.5,0.17 0.68,0.8 l 1.87,7.39 c 0.03,0.11 0.14,0.62 0.14,0.7 0,0.35 -0.25,0.52 -0.59,0.52 -0.49,0 -0.52,-0.2 -0.69,-0.83 -0.7,-2.72 -1.72,-3.25 -4.67,-3.25 h -3.49 l 2.19,8.75 c 0.28,1.08 0.31,1.19 1.78,1.19 h 5.33 c 4.64,0 5.52,-1.11 5.52,-4.02 0,-1.14 -0.14,-1.87 -0.14,-2.15 0,-0.29 0.09,-0.6 0.59,-0.6 0.51,0 0.55,0.31 0.63,0.91 l 0.62,6.06 c 0.09,1.05 -0.14,1.05 -1.02,1.05 h -18.6 c -0.66,0 -1.12,0 -1.12,-0.77 0,-0.48 0.43,-0.48 1.12,-0.48 0.04,0 0.7,0 1.32,-0.08 0.74,-0.06 0.8,-0.13 0.8,-0.48 0,-0.24 -0.09,-0.6 -0.14,-0.77 l -4.56,-18.22 c -0.35,-1.36 -0.38,-1.61 -3.1,-1.61 -0.59,0 -1.04,0 -1.04,-0.73 0,-0.35 0.23,-0.52 0.56,-0.52 1,0 3.58,0.14 4.59,0.14 l 2.69,-0.03 c 0.91,0 1.88,-0.11 2.75,-0.11 0.23,0 0.76,0 0.76,0.77 0,0.48 -0.42,0.48 -1.21,0.48 -0.08,0 -0.94,0 -1.82,0.08 -0.73,0.06 -1.07,0.09 -1.07,0.59 0,0.14 0,0.24 0.09,0.63 z"
         inkscape:connector-curvature="0"
         style="fill:#000000;stroke-width:0" /><polyline
         id="polyline3237"
         points="567,418 635.04,418 635.04,420.04 567,420.04 "
         style="fill:#000000;fill-rule:nonzero;stroke-width:0" /><path
         id="path3239"
         d="m 592.03,408.7 0.12,0.17 0.12,0.16 0.12,0.17 0.12,0.15 0.11,0.15 0.12,0.15 0.12,0.13 0.12,0.14 0.12,0.13 0.12,0.12 0.12,0.11 0.12,0.12 0.12,0.1 0.12,0.1 0.13,0.1 0.12,0.09 0.13,0.09 0.13,0.08 0.13,0.07 0.14,0.07 0.13,0.07 0.14,0.06 0.14,0.06 0.15,0.05 0.15,0.05 0.15,0.04 0.15,0.04 0.16,0.03 0.16,0.03 0.17,0.02 0.17,0.02 0.17,0.02 c 0.43,0.03 0.8,0.06 0.8,0.76 0,0.11 -0.06,0.49 -0.48,0.49 -0.85,0 -1.92,-0.14 -2.8,-0.14 -1.11,0 -2.58,0.14 -3.61,0.14 -0.33,0 -0.7,-0.11 -0.7,-0.77 0,-0.45 0.48,-0.48 0.62,-0.48 1.11,-0.08 1.42,-0.49 1.42,-1.02 0,-0.48 -0.23,-0.83 -0.62,-1.39 l -11.42,-16.86 -3.18,17.8 c -0.06,0.31 -0.06,0.39 -0.06,0.53 0,0.94 1.94,0.94 2.19,0.94 0.59,0 1.05,0 1.05,0.76 0,0.03 -0.03,0.49 -0.6,0.49 -1.01,0 -3.48,-0.14 -4.5,-0.14 -0.86,0 -2.98,0.14 -3.86,0.14 -0.31,0 -0.7,-0.11 -0.7,-0.77 0,-0.48 0.48,-0.48 0.88,-0.48 1.95,0 1.98,-0.22 2.15,-1.13 l 3.8,-21.17 c 0.14,-0.74 0.17,-0.95 0.84,-0.95 0.66,0 0.83,0.25 1.19,0.76 z"
         inkscape:connector-curvature="0"
         style="fill:#000000;stroke-width:0" /><path
         id="path3241"
         d="m 619.22,403.04 -0.01,0.02 -0.02,0.03 -0.01,0.02 -0.01,0.03 -0.01,0.02 -0.01,0.02 -0.01,0.02 -0.01,0.02 -0.01,0.02 -0.01,0.02 -0.01,0.01 -0.01,0.02 -0.01,0.01 -0.01,0.02 -0.01,0.01 0,0.01 -0.01,0.02 -0.01,0.01 0,0.01 -0.01,0.01 0,0.01 -0.01,0.01 0,0 -0.01,0.01 0,0.01 0,0 0,0.01 -0.01,0.01 0,0 0,0 0,0.01 0,0 c 0,0.08 0.03,0.11 0.84,0.67 l 3.52,2.47 c 4.59,3.24 6.76,4.77 9.23,4.99 0.38,0.03 0.8,0.06 0.8,0.76 0,0.28 -0.23,0.45 -0.45,0.45 -0.74,0 -1.64,-0.1 -2.41,-0.1 -0.94,0 -3.26,0.14 -4.2,0.14 -0.22,0 -0.74,0 -0.74,-0.77 0,-0.03 0,-0.45 0.52,-0.48 0.42,-0.04 0.87,-0.11 0.87,-0.49 0,-0.64 -1.07,-1.4 -1.53,-1.72 l -14.53,-10.23 2.75,10.97 c 0.31,1.18 0.35,1.47 3.06,1.47 0.57,0 1.05,0 1.05,0.73 0,0.31 -0.2,0.52 -0.56,0.52 -1,0 -3.55,-0.14 -4.56,-0.14 -0.6,0 -1.82,0 -2.41,0.03 -0.69,0.04 -1.53,0.11 -2.19,0.11 -0.2,0 -0.73,0 -0.73,-0.77 0,-0.48 0.39,-0.48 1.15,-0.48 0.55,0 0.69,0 1.32,-0.08 0.7,-0.06 0.78,-0.14 0.78,-0.49 0,-0.06 0,-0.23 -0.14,-0.76 l -4.64,-18.5 c -0.28,-1.19 -0.35,-1.47 -3.07,-1.47 -0.62,0 -1.04,0 -1.04,-0.77 0,-0.03 0,-0.48 0.56,-0.48 1,0 3.52,0.14 4.52,0.14 0.59,0 1.81,0 2.4,-0.03 0.71,-0.05 1.58,-0.11 2.24,-0.11 0.2,0 0.73,0 0.73,0.76 0,0.49 -0.42,0.49 -1.11,0.49 -0.05,0 -0.7,0 -1.33,0.08 -0.81,0.06 -0.81,0.17 -0.81,0.51 0,0.28 0.36,1.58 1.64,6.69 l 5.78,4.08 5.07,-9.78 c 0.23,-0.46 0.23,-0.5 0.23,-0.67 0,-0.8 -0.97,-0.91 -1.59,-0.91 -0.43,0 -0.91,0 -0.91,-0.77 0,-0.03 0.03,-0.48 0.59,-0.48 0.97,0 3.49,0.14 4.46,0.14 1.04,0 2.43,-0.14 3.42,-0.14 0.45,0 0.69,0.25 0.69,0.73 0,0.52 -0.46,0.52 -0.8,0.52 -0.63,0 -1.7,0.05 -2.3,1.16 z"
         inkscape:connector-curvature="0"
         style="fill:#000000;stroke-width:0" /></g>  </g>
  <g
     style="fill:#ff0000"
     transform="matrix(0.23961789,0,0,0.23961789,172.39278,29.461739)"
     id="g3324">
    <g
       style="font-style:normal;font-variant:normal;font-weight:normal;font-stretch:normal;letter-spacing:normal;word-spacing:normal;text-anchor:start;fill:#ff0000;stroke:#000000;stroke-linecap:butt;stroke-linejoin:miter;stroke-miterlimit:10.43299960999999954;stroke-opacity:1;stroke-dasharray:none;stroke-dashoffset:0"
       id="g3326"
       transform="matrix(1.0629921,0,0,-1.0629921,-186.02362,789.27165)"
       xml:space="preserve"
       stroke-miterlimit="10.433"
       font-style="normal"
       font-variant="normal"
       font-weight="normal"
       font-stretch="normal"
       font-size-adjust="none"
       letter-spacing="normal"
       word-spacing="normal"><polygon
         style="fill:#ff0000;stroke-width:0"
         points="481.5,435.59 463.52,435.59 463.52,434.04 481.5,434.04 "
         id="polygon3328" /><path
         style="fill:#ff0000;stroke-width:0"
         inkscape:connector-curvature="0"
         d="m 457.16,397.57 -0.01,-0.02 -0.01,-0.03 0,-0.03 -0.01,-0.02 0,-0.03 -0.01,-0.02 -0.01,-0.02 0,-0.03 -0.01,-0.02 0,-0.02 0,-0.02 -0.01,-0.02 0,-0.02 -0.01,-0.02 0,-0.04 -0.01,-0.03 -0.01,-0.03 0,-0.03 -0.01,-0.03 0,-0.03 -0.01,-0.02 0,-0.02 -0.01,-0.03 0,-0.02 0,-0.02 0,-0.01 -0.01,-0.02 0,-0.01 0,-0.02 0,-0.01 0,-0.02 0,-0.01 0,-0.01 0,-0.02 0,-0.02 0,-0.02 c 0,-0.74 0.54,-1.35 1.39,-1.35 1.04,0 1.64,0.91 1.75,1.05 0.23,0.45 1.84,7.13 3.18,12.52 0.99,-2 2.58,-3.35 4.93,-3.35 l -0.05,1.1 c -3.49,0 -4.28,3.98 -4.28,4.43 0,0.21 0.25,1.19 0.39,1.85 1.4,5.58 1.9,7.37 3,9.36 2.14,3.64 4.62,4.73 6.17,4.73 1.84,0 3.44,-1.44 3.44,-4.87 0,-2.75 -1.44,-8.33 -2.78,-10.77 -1.66,-3.14 -4.05,-4.73 -5.94,-4.73 h 0 l 0.05,-1.1 c 5.82,0 12.26,7.03 12.26,14.46 0,5.28 -3.3,8.1 -6.94,8.1 -4.82,0 -10.06,-4.98 -11.54,-11.06 z"
         id="path3330" /><path
         style="fill:#ff0000;stroke-width:0"
         inkscape:connector-curvature="0"
         d="m 529.35,422.5 0.14,0 0.14,0 0.15,0 0.07,0.01 0.07,0 0.07,0.01 0.07,0.01 0.07,0.01 0.07,0.01 0.07,0.01 0.07,0.02 0.06,0.02 0.07,0.02 0.06,0.02 0.06,0.03 0.05,0.03 0.05,0.04 0.05,0.03 0.05,0.05 0.04,0.04 0.04,0.05 0.02,0.03 0.02,0.03 0.02,0.02 0.01,0.03 0.02,0.03 0.01,0.04 0.01,0.03 0.01,0.04 0.01,0.03 0.01,0.04 0.01,0.04 0,0.04 0.01,0.04 0,0.04 0,0.04 0,0.05 c 0,1 -0.95,1 -1.63,1 h -29.85 c -0.7,0 -1.64,0 -1.64,-1 0,-0.98 0.94,-0.98 1.69,-0.98 z"
         id="path3332" /><path
         style="fill:#ff0000;stroke-width:0"
         inkscape:connector-curvature="0"
         d="m 529.4,412.82 0.06,0 0.07,0 0.13,0.01 0.14,0 0.07,0 0.07,0.01 0.07,0.01 0.07,0 0.07,0.01 0.07,0.02 0.06,0.01 0.07,0.02 0.06,0.02 0.06,0.02 0.06,0.02 0.06,0.03 0.05,0.03 0.06,0.04 0.05,0.04 0.04,0.04 0.05,0.05 0.02,0.02 0.02,0.03 0.01,0.02 0.02,0.03 0.02,0.03 0.01,0.03 0.02,0.03 0.01,0.03 0.01,0.04 0.01,0.03 0.01,0.04 0.01,0.04 0.01,0.04 0,0.04 0.01,0.04 0,0.04 0,0.05 0,0.04 c 0,1 -0.95,1 -1.68,1 H 499.6 c -0.75,0 -1.69,0 -1.69,-1 0,-1 0.94,-1 1.64,-1 z"
         id="path3334" /><path
         style="fill:#ff0000;stroke-width:0"
         inkscape:connector-curvature="0"
         d="M 597.28,436.98 H 601 c 2.66,0 3.11,-0.42 3.11,-1.56 0,-0.53 0,-0.6 -0.25,-1.58 -0.06,-0.2 -0.11,-0.31 -0.11,-0.41 0,-0.36 0.25,-0.53 0.59,-0.53 0.46,0 0.5,0.17 0.68,0.8 l 1.87,7.39 c 0.03,0.11 0.14,0.62 0.14,0.7 0,0.35 -0.25,0.52 -0.59,0.52 -0.49,0 -0.52,-0.2 -0.69,-0.83 -0.7,-2.72 -1.72,-3.25 -4.67,-3.25 h -3.49 l 2.19,8.75 c 0.28,1.08 0.31,1.19 1.78,1.19 h 5.33 c 4.64,0 5.52,-1.11 5.52,-4.02 0,-1.14 -0.14,-1.87 -0.14,-2.15 0,-0.29 0.09,-0.6 0.59,-0.6 0.52,0 0.55,0.31 0.62,0.91 l 0.63,6.06 c 0.09,1.05 -0.14,1.05 -1.02,1.05 h -18.61 c -0.65,0 -1.1,0 -1.1,-0.77 0,-0.48 0.42,-0.48 1.1,-0.48 0.05,0 0.71,0 1.33,-0.08 0.74,-0.06 0.8,-0.13 0.8,-0.48 0,-0.24 -0.09,-0.6 -0.14,-0.77 l -4.56,-18.22 c -0.35,-1.36 -0.38,-1.61 -3.1,-1.61 -0.59,0 -1.04,0 -1.04,-0.73 0,-0.35 0.23,-0.52 0.56,-0.52 1,0 3.58,0.14 4.59,0.14 l 2.69,-0.03 c 0.91,0 1.87,-0.11 2.75,-0.11 0.23,0 0.76,0 0.76,0.77 0,0.48 -0.42,0.48 -1.21,0.48 -0.08,0 -0.94,0 -1.82,0.08 -0.73,0.06 -1.07,0.09 -1.07,0.59 0,0.14 0,0.24 0.09,0.63 z"
         id="path3336" /><polyline
         style="fill:#ff0000;fill-rule:nonzero;stroke-width:0"
         points="554,418 647.96,418 647.96,420.04 554,420.04 "
         id="polyline3338" /><path
         style="fill:#ff0000;stroke-width:0"
         inkscape:connector-curvature="0"
         d="m 578.59,408.7 0.12,0.17 0.12,0.16 0.12,0.17 0.12,0.15 0.11,0.15 0.12,0.15 0.12,0.13 0.12,0.14 0.12,0.13 0.12,0.12 0.12,0.11 0.12,0.12 0.12,0.1 0.12,0.1 0.13,0.1 0.12,0.09 0.13,0.09 0.13,0.08 0.13,0.07 0.13,0.07 0.14,0.07 0.14,0.06 0.14,0.06 0.15,0.05 0.14,0.05 0.16,0.04 0.15,0.04 0.16,0.03 0.16,0.03 0.17,0.02 0.17,0.02 0.17,0.02 c 0.42,0.03 0.8,0.06 0.8,0.76 0,0.11 -0.06,0.49 -0.48,0.49 -0.85,0 -1.93,-0.14 -2.8,-0.14 -1.11,0 -2.58,0.14 -3.61,0.14 -0.33,0 -0.7,-0.11 -0.7,-0.77 0,-0.45 0.48,-0.48 0.62,-0.48 1.11,-0.08 1.42,-0.49 1.42,-1.02 0,-0.48 -0.23,-0.83 -0.62,-1.39 l -11.42,-16.86 -3.18,17.8 c -0.06,0.31 -0.06,0.39 -0.06,0.53 0,0.94 1.94,0.94 2.19,0.94 0.59,0 1.05,0 1.05,0.76 0,0.03 -0.04,0.49 -0.6,0.49 -1.01,0 -3.48,-0.14 -4.5,-0.14 -0.86,0 -2.98,0.14 -3.86,0.14 -0.31,0 -0.7,-0.11 -0.7,-0.77 0,-0.48 0.48,-0.48 0.87,-0.48 1.96,0 1.99,-0.22 2.16,-1.13 l 3.8,-21.17 c 0.14,-0.74 0.17,-0.95 0.84,-0.95 0.66,0 0.83,0.25 1.19,0.76 z"
         id="path3340" /><path
         style="fill:#ff0000;stroke-width:0"
         inkscape:connector-curvature="0"
         d="m 604.9,393.95 0.3,0.31 0.28,0.32 0.27,0.33 0.26,0.33 0.26,0.33 0.24,0.34 0.23,0.34 0.22,0.34 0.21,0.34 0.19,0.34 0.19,0.33 0.18,0.34 0.17,0.32 0.16,0.33 0.15,0.31 0.14,0.31 0.13,0.3 0.13,0.29 0.11,0.28 0.1,0.27 0.1,0.25 0.08,0.24 0.08,0.23 0.07,0.21 0.06,0.19 0.05,0.18 0.04,0.16 0.04,0.13 0.03,0.12 0.02,0.09 0.01,0.08 0,0.04 c 0,0.46 -0.42,0.46 -0.59,0.46 -0.5,0 -0.5,-0.1 -0.74,-0.86 -0.62,-2.32 -1.78,-4.44 -3.25,-6.32 -0.03,0.52 -0.09,2.86 -0.17,3.18 -0.51,3.45 -3.12,5.67 -6.61,5.67 L 598,403.43 c 2.79,0 3.59,-2.69 3.87,-4.84 0.2,-1.5 0.14,-3.97 0.31,-5.82 h 0 c -3.42,-2.79 -6.37,-3.11 -7.7,-3.11 -2.3,0 -3.59,1.54 -3.59,3.88 0,1 0.5,4.8 2.31,7.2 1.59,2.1 3.58,2.69 4.8,2.69 l 0.04,0.97 c -5.12,0 -10.04,-4.77 -10.04,-9.64 0,-3.21 2.34,-6.06 6.37,-6.06 3.22,0 6.11,1.45 8.05,2.95 0.81,-2.55 2.59,-2.95 3.62,-2.95 2.03,0 3.28,1.7 3.28,2.43 0,0.42 -0.42,0.42 -0.59,0.42 -0.45,0 -0.51,-0.14 -0.59,-0.35 -0.49,-1.32 -1.57,-1.54 -1.99,-1.54 -0.48,0 -1.08,0 -1.25,4.29 z"
         id="path3342" /><path
         style="fill:#ff0000;stroke-width:0"
         inkscape:connector-curvature="0"
         d="m 631.7,403.04 -0.02,0.02 -0.01,0.03 -0.01,0.02 -0.01,0.03 -0.02,0.02 -0.01,0.02 -0.01,0.02 -0.01,0.02 -0.01,0.02 -0.01,0.02 -0.01,0.01 -0.01,0.02 0,0.01 -0.01,0.02 -0.01,0.01 -0.01,0.01 0,0.02 -0.01,0.01 -0.01,0.01 0,0.01 -0.01,0.01 0,0.01 0,0 -0.01,0.01 0,0.01 0,0 -0.01,0.01 0,0.01 0,0 0,0 0,0.01 0,0 c 0,0.08 0.03,0.11 0.84,0.67 l 3.52,2.47 c 4.59,3.24 6.76,4.77 9.23,4.99 0.38,0.03 0.8,0.06 0.8,0.76 0,0.28 -0.24,0.45 -0.46,0.45 -0.73,0 -1.64,-0.1 -2.4,-0.1 -0.94,0 -3.27,0.14 -4.21,0.14 -0.21,0 -0.73,0 -0.73,-0.77 0,-0.03 0,-0.45 0.52,-0.48 0.42,-0.04 0.87,-0.11 0.87,-0.49 0,-0.64 -1.08,-1.4 -1.53,-1.72 l -14.53,-10.23 2.75,10.97 c 0.31,1.18 0.34,1.47 3.06,1.47 0.56,0 1.05,0 1.05,0.73 0,0.31 -0.21,0.52 -0.56,0.52 -1,0 -3.55,-0.14 -4.57,-0.14 -0.59,0 -1.81,0 -2.4,0.03 -0.69,0.04 -1.53,0.11 -2.19,0.11 -0.2,0 -0.74,0 -0.74,-0.77 0,-0.48 0.4,-0.48 1.16,-0.48 0.55,0 0.69,0 1.31,-0.08 0.71,-0.06 0.78,-0.14 0.78,-0.49 0,-0.06 0,-0.23 -0.14,-0.76 l -4.64,-18.5 c -0.28,-1.19 -0.34,-1.47 -3.06,-1.47 -0.62,0 -1.05,0 -1.05,-0.77 0,-0.03 0,-0.48 0.57,-0.48 1,0 3.51,0.14 4.51,0.14 0.6,0 1.81,0 2.41,-0.03 0.7,-0.05 1.58,-0.11 2.23,-0.11 0.21,0 0.74,0 0.74,0.76 0,0.49 -0.42,0.49 -1.11,0.49 -0.05,0 -0.71,0 -1.33,0.08 -0.81,0.06 -0.81,0.17 -0.81,0.51 0,0.28 0.36,1.58 1.64,6.69 l 5.78,4.08 5.06,-9.78 c 0.24,-0.46 0.24,-0.5 0.24,-0.67 0,-0.8 -0.97,-0.91 -1.6,-0.91 -0.42,0 -0.9,0 -0.9,-0.77 0,-0.03 0.03,-0.48 0.59,-0.48 0.97,0 3.48,0.14 4.45,0.14 1.05,0 2.44,-0.14 3.42,-0.14 0.46,0 0.69,0.25 0.69,0.73 0,0.52 -0.45,0.52 -0.79,0.52 -0.63,0 -1.71,0.05 -2.3,1.16 z"
         id="path3344" /><path
         style="fill:#ff0000;stroke-width:0"
         inkscape:connector-curvature="0"
         d="m 682.5,389.27 0,0.02 0,0.02 0,0.01 0,0.02 -0.01,0.02 0,0.01 0,0.02 -0.01,0.01 0,0.02 -0.01,0.01 0,0.02 -0.01,0.01 0,0.01 -0.01,0.02 0,0.01 -0.01,0.01 -0.02,0.03 -0.01,0.02 -0.02,0.03 -0.02,0.02 -0.01,0.03 -0.02,0.03 -0.02,0.02 -0.01,0.02 -0.01,0.01 c -2.3,2.44 -5.68,6.49 -7.77,14.6 -1.15,4.53 -1.59,9.67 -1.59,14.29 0,13.11 3.14,22.28 9.11,28.75 0.45,0.46 0.45,0.55 0.45,0.66 0,0.5 -0.41,0.5 -0.59,0.5 -0.75,0 -3.44,-3 -4.1,-3.75 -5.08,-6.02 -8.31,-14.98 -8.31,-26.09 0,-7.08 1.23,-17.1 7.77,-25.52 0.5,-0.59 3.73,-4.39 4.64,-4.39 0.18,0 0.59,0 0.59,0.5 z"
         id="path3346" /><path
         style="fill:#ff0000;stroke-width:0"
         inkscape:connector-curvature="0"
         d="m 720.09,450.65 0,0.01 0,0.02 0,0.02 0,0.02 0,0.02 -0.01,0.01 0,0.02 -0.01,0.02 0,0.02 -0.01,0.02 -0.01,0.02 -0.01,0.02 -0.01,0.02 -0.01,0.01 -0.01,0.02 -0.01,0.02 -0.02,0.02 -0.01,0.01 -0.02,0.02 -0.01,0.01 -0.02,0.02 -0.02,0.01 -0.02,0.01 -0.02,0.02 -0.03,0.01 -0.02,0 -0.02,0.01 -0.03,0.01 -0.01,0 -0.02,0 -0.01,0.01 -0.02,0 -0.01,0 -0.02,0 -0.01,0 -0.02,0 c -0.25,0 -0.31,-0.08 -0.62,-0.42 l -2.55,-2.69 c -0.31,0.42 -2.27,3.11 -6.55,3.11 -8.47,0 -16.76,-7.5 -16.76,-15.37 0,-5.68 4.46,-9.83 10.7,-9.83 1.87,0 5.22,0.39 8.81,3.42 2.75,2.33 3.52,5.36 3.52,5.64 0,0.45 -0.42,0.45 -0.6,0.45 -0.45,0 -0.51,-0.17 -0.62,-0.54 -1.42,-4.78 -6.31,-7.71 -10.52,-7.71 -3.7,0 -7.81,1.99 -7.81,7.49 0,1.01 0.25,6.51 4.25,10.9 2.41,2.69 6.06,4.29 9.38,4.29 4.04,0 6.4,-2.93 6.4,-6.83 0,-0.97 -0.09,-1.22 -0.09,-1.42 0,-0.46 0.45,-0.46 0.62,-0.46 0.57,0 0.57,0.11 0.74,0.77 z"
         id="path3348" /><path
         style="fill:#ff0000;stroke-width:0"
         inkscape:connector-curvature="0"
         d="m 734.25,429.53 0,0.18 0,0.21 -0.01,0.24 0,0.25 -0.01,0.28 -0.02,0.3 -0.03,0.31 -0.03,0.33 -0.04,0.34 -0.06,0.35 -0.06,0.36 -0.08,0.37 -0.1,0.36 -0.1,0.37 -0.13,0.37 -0.14,0.36 -0.16,0.36 -0.19,0.35 -0.2,0.35 -0.23,0.33 -0.25,0.31 -0.27,0.3 -0.15,0.15 -0.15,0.14 -0.16,0.13 -0.17,0.13 -0.18,0.12 -0.18,0.12 -0.19,0.11 -0.2,0.1 -0.2,0.1 -0.21,0.09 -0.23,0.08 -0.22,0.08 -0.24,0.06 -0.25,0.06 -0.25,0.05 -0.27,0.04 -0.27,0.04 -0.28,0.02 -0.29,0.02 -0.3,0 v -0.83 c 1.84,0 3.17,-0.93 3.66,-2.68 0.36,-1.27 0.36,-3.35 0.36,-4.82 0,-1.68 0,-3.7 -0.38,-5.2 -0.66,-2.42 -2.64,-2.78 -3.64,-2.78 h 0 c -0.92,0 -3.02,0.31 -3.64,2.83 -0.34,1.34 -0.38,3.12 -0.38,5.15 0,1.85 0,3.57 0.41,4.99 0.63,2.09 2.55,2.51 3.61,2.51 v 0.83 c -6.5,0 -6.5,-6.83 -6.5,-8.62 0,-1.82 0,-8.52 6.5,-8.52 6.5,0 6.5,6.7 6.5,8.52 z"
         id="path3350" /><polyline
         style="fill:#ff0000;fill-rule:nonzero;stroke-width:0"
         points="691,418 739.12,418 739.12,420.04 691,420.04 "
         id="polyline3352" /><polygon
         style="fill:#ff0000;stroke-width:0"
         points="724.83,416.34 710.97,416.34 710.97,415.02 724.83,415.02 "
         id="polygon3354" /><path
         style="fill:#ff0000;stroke-width:0"
         inkscape:connector-curvature="0"
         d="m 728.61,410.81 0,0.02 0,0.01 0,0.02 0,0.02 -0.01,0.02 0,0.01 0,0.02 -0.01,0.02 -0.01,0.02 0,0.02 -0.01,0.02 -0.01,0.02 -0.01,0.02 -0.01,0.01 -0.01,0.02 -0.01,0.02 -0.02,0.02 -0.01,0.01 -0.02,0.02 -0.02,0.01 -0.01,0.02 -0.02,0.01 -0.02,0.01 -0.02,0.02 -0.03,0.01 -0.02,0 -0.03,0.01 -0.02,0.01 -0.02,0 -0.01,0 -0.01,0.01 -0.02,0 -0.01,0 -0.02,0 -0.01,0 -0.02,0 c -0.25,0 -0.31,-0.08 -0.63,-0.42 l -2.54,-2.69 c -0.31,0.42 -2.27,3.11 -6.55,3.11 -8.47,0 -16.76,-7.5 -16.76,-15.37 0,-5.68 4.47,-9.83 10.7,-9.83 1.87,0 5.22,0.39 8.81,3.42 2.75,2.33 3.52,5.36 3.52,5.64 0,0.45 -0.43,0.45 -0.6,0.45 -0.45,0 -0.51,-0.17 -0.62,-0.54 -1.42,-4.78 -6.31,-7.71 -10.52,-7.71 -3.7,0 -7.81,1.99 -7.81,7.49 0,1.01 0.25,6.51 4.25,10.9 2.41,2.69 6.06,4.29 9.37,4.29 4.05,0 6.41,-2.93 6.41,-6.83 0,-0.97 -0.09,-1.22 -0.09,-1.42 0,-0.46 0.45,-0.46 0.62,-0.46 0.56,0 0.56,0.11 0.74,0.77 z"
         id="path3356" /><path
         style="fill:#ff0000;stroke-width:0"
         inkscape:connector-curvature="0"
         d="m 788.59,417.65 0.16,0 0.16,0 0.15,0.01 0.08,0 0.08,0.01 0.08,0 0.07,0.01 0.07,0.01 0.07,0.01 0.07,0.02 0.07,0.02 0.07,0.02 0.06,0.02 0.06,0.02 0.06,0.03 0.06,0.03 0.05,0.04 0.05,0.03 0.04,0.05 0.05,0.04 0.04,0.05 0.01,0.03 0.02,0.03 0.02,0.03 0.01,0.03 0.01,0.03 0.02,0.03 0.01,0.04 0.01,0.03 0.01,0.04 0.01,0.04 0,0.04 0.01,0.04 0,0.04 0.01,0.04 0,0.05 0,0.04 c 0,1 -0.91,1 -1.75,1 h -26.95 c -0.85,0 -1.74,0 -1.74,-1 0,-1 0.89,-1 1.74,-1 z"
         id="path3358" /><path
         style="fill:#ff0000;stroke-width:0"
         inkscape:connector-curvature="0"
         d="m 820.2,438.09 0,0.05 0,0.06 0,0.05 0,0.05 0,0.05 0,0.05 0,0.04 0,0.05 0,0.04 -0.01,0.04 0,0.04 0,0.04 0,0.04 0,0.03 -0.01,0.04 0,0.03 -0.01,0.07 -0.01,0.06 -0.01,0.05 -0.01,0.05 -0.02,0.05 -0.02,0.04 -0.02,0.04 -0.02,0.03 -0.03,0.03 -0.03,0.03 -0.04,0.03 -0.04,0.02 -0.04,0.02 -0.03,0.01 -0.02,0.01 -0.03,0 -0.02,0.01 -0.03,0.01 -0.03,0 -0.03,0.01 -0.03,0 -0.04,0.01 -0.03,0 -0.04,0 -0.04,0.01 -0.03,0 -0.04,0 -0.05,0 -0.04,0 -0.04,0 -0.05,0.01 -0.05,0 -0.05,0 -0.05,0 -0.05,0 c -3.09,-3.19 -7.47,-3.19 -9.06,-3.19 v -1.55 c 1,0 3.93,0 6.51,1.3 v -25.81 c 0,-1.8 -0.14,-2.39 -4.62,-2.39 h -1.6 v -1.55 c 1.75,0.16 6.08,0.16 8.06,0.16 2,0 6.33,0 8.08,-0.16 v 1.55 h -1.59 c -4.49,0 -4.64,0.54 -4.64,2.39 z"
         id="path3360" /><path
         style="fill:#ff0000;stroke-width:0"
         inkscape:connector-curvature="0"
         d="m 845.72,418.61 -0.01,1.36 -0.05,1.43 -0.1,1.47 -0.13,1.53 -0.2,1.57 -0.25,1.61 -0.31,1.63 -0.39,1.66 -0.22,0.83 -0.24,0.84 -0.26,0.84 -0.29,0.84 -0.3,0.84 -0.33,0.84 -0.35,0.85 -0.38,0.83 -0.4,0.84 -0.43,0.83 -0.45,0.83 -0.48,0.82 -0.51,0.82 -0.54,0.81 -0.56,0.8 -0.6,0.8 c -0.5,0.59 -3.73,4.39 -4.62,4.39 -0.25,0 -0.61,-0.11 -0.61,-0.5 0,-0.2 0.11,-0.36 0.29,-0.5 2.4,-2.59 5.65,-6.63 7.68,-14.55 1.15,-4.53 1.6,-9.67 1.6,-14.29 0,-5.04 -0.45,-10.13 -1.75,-15 -1.88,-6.99 -4.82,-10.97 -7.37,-13.75 -0.45,-0.46 -0.45,-0.55 -0.45,-0.66 0,-0.39 0.36,-0.5 0.61,-0.5 0.73,0 3.48,3.05 4.08,3.75 5.07,6.02 8.32,14.98 8.32,26.09 z"
         id="path3362" /></g>  </g>
  <g
     id="g3458"
     transform="matrix(0.17948218,0,0,0.17948218,2.5021235,261.74682)">
    <g
       word-spacing="normal"
       letter-spacing="normal"
       font-size-adjust="none"
       font-stretch="normal"
       font-weight="normal"
       font-variant="normal"
       font-style="normal"
       stroke-miterlimit="10.433"
       xml:space="preserve"
       transform="matrix(1.0629921,0,0,-1.0629921,-186.02362,789.27165)"
       id="g3460"
       style="font-style:normal;font-variant:normal;font-weight:normal;font-stretch:normal;letter-spacing:normal;word-spacing:normal;text-anchor:start;fill:none;stroke:#000000;stroke-linecap:butt;stroke-linejoin:miter;stroke-miterlimit:10.43299961;stroke-opacity:1;stroke-dasharray:none;stroke-dashoffset:0"><path
         id="path3462"
         d="m 472,394.25 0,0.02 0,0.03 0,0.01 0,0.02 0,0.01 -0.01,0.02 0,0.01 -0.01,0.02 -0.01,0.02 -0.01,0.02 -0.01,0.02 -0.02,0.03 -0.01,0.02 -0.02,0.03 -0.02,0.03 -0.03,0.03 -0.02,0.03 -0.03,0.04 -0.02,0.02 -0.01,0.02 -0.02,0.02 -0.02,0.02 -0.02,0.02 -0.02,0.03 -0.02,0.02 -0.02,0.02 -0.02,0.03 -0.03,0.02 -0.02,0.03 -0.03,0.03 -0.03,0.03 -0.02,0.03 -0.03,0.03 -0.03,0.03 -0.03,0.03 -0.03,0.03 -0.04,0.04 -0.03,0.03 -0.04,0.04 -0.03,0.03 -0.04,0.04 -0.04,0.04 c -6.22,6.28 -7.81,15.69 -7.81,23.31 0,8.67 1.89,17.35 8.01,23.56 0.64,0.61 0.64,0.71 0.64,0.86 0,0.35 -0.18,0.49 -0.48,0.49 -0.5,0 -4.98,-3.38 -7.92,-9.7 -2.55,-5.49 -3.14,-11.02 -3.14,-15.21 0,-3.89 0.54,-9.9 3.28,-15.54 2.98,-6.13 7.28,-9.36 7.78,-9.36 0.3,0 0.48,0.14 0.48,0.5 z"
         inkscape:connector-curvature="0"
         style="fill:#000000;stroke-width:0" /><path
         id="path3464"
         d="m 497.76,422.14 -0.01,0.74 -0.01,0.75 -0.02,0.75 -0.03,0.74 -0.04,0.75 -0.06,0.74 -0.08,0.74 -0.1,0.73 -0.11,0.73 -0.14,0.73 -0.16,0.72 -0.19,0.72 -0.22,0.72 -0.24,0.7 -0.28,0.7 -0.15,0.35 -0.16,0.34 c -2.28,4.8 -6.38,5.6 -8.47,5.6 -2.99,0 -6.63,-1.3 -8.67,-5.94 -1.6,-3.44 -1.85,-7.33 -1.85,-11.31 0,-3.74 0.21,-8.22 2.25,-12 2.14,-4.03 5.78,-5.03 8.22,-5.03 v 1.09 c -1.94,0 -4.89,1.25 -5.78,6.03 -0.55,2.98 -0.55,7.56 -0.55,10.52 0,3.18 0,6.46 0.41,9.15 0.94,5.94 4.67,6.38 5.92,6.38 1.64,0 4.94,-0.89 5.88,-5.83 0.5,-2.78 0.5,-6.58 0.5,-9.7 0,-3.75 0,-7.13 -0.55,-10.32 -0.75,-4.73 -3.59,-6.23 -5.83,-6.23 h 0 v -1.09 c 2.69,0 6.47,1.04 8.67,5.78 1.6,3.43 1.85,7.31 1.85,11.25 z"
         inkscape:connector-curvature="0"
         style="fill:#000000;stroke-width:0" /><path
         id="path3466"
         d="m 509.9,406.25 0,0.3 -0.01,0.3 -0.02,0.29 -0.02,0.28 -0.04,0.27 -0.03,0.26 -0.05,0.26 -0.05,0.24 -0.06,0.24 -0.06,0.23 -0.07,0.22 -0.08,0.21 -0.08,0.2 -0.09,0.19 -0.1,0.19 -0.1,0.17 -0.11,0.16 -0.11,0.16 -0.12,0.14 -0.12,0.13 -0.13,0.13 -0.13,0.11 -0.14,0.1 -0.14,0.1 -0.15,0.08 -0.16,0.07 -0.15,0.06 -0.17,0.05 -0.17,0.04 -0.17,0.03 -0.17,0.01 -0.19,0.01 c -1.64,0 -2.64,-1.25 -2.64,-2.64 0,-1.34 1,-2.64 2.64,-2.64 0.6,0 1.25,0.2 1.75,0.64 0.15,0.11 0.21,0.16 0.25,0.16 0.05,0 0.1,-0.05 0.1,-0.75 0,-3.69 -1.74,-6.68 -3.39,-8.32 -0.55,-0.54 -0.55,-0.65 -0.55,-0.79 0,-0.36 0.25,-0.55 0.5,-0.55 0.55,0 4.53,3.83 4.53,9.66 z"
         inkscape:connector-curvature="0"
         style="fill:#000000;stroke-width:0" /><path
         id="path3468"
         d="m 544.79,422.14 0,0.74 -0.01,0.75 -0.02,0.75 -0.03,0.74 -0.05,0.75 -0.06,0.74 -0.08,0.74 -0.09,0.73 -0.12,0.73 -0.14,0.73 -0.16,0.72 -0.19,0.72 -0.21,0.72 -0.25,0.7 -0.28,0.7 -0.15,0.35 -0.16,0.34 c -2.28,4.8 -6.37,5.6 -8.47,5.6 -2.98,0 -6.62,-1.3 -8.67,-5.94 -1.59,-3.44 -1.84,-7.33 -1.84,-11.31 0,-3.74 0.2,-8.22 2.25,-12 2.14,-4.03 5.78,-5.03 8.22,-5.03 v 1.09 c -1.94,0 -4.89,1.25 -5.78,6.03 -0.55,2.98 -0.55,7.56 -0.55,10.52 0,3.18 0,6.46 0.4,9.15 0.94,5.94 4.68,6.38 5.93,6.38 1.64,0 4.94,-0.89 5.87,-5.83 0.5,-2.78 0.5,-6.58 0.5,-9.7 0,-3.75 0,-7.13 -0.55,-10.32 -0.75,-4.73 -3.59,-6.23 -5.82,-6.23 h 0 v -1.09 c 2.69,0 6.47,1.04 8.67,5.78 1.59,3.43 1.84,7.31 1.84,11.25 z"
         inkscape:connector-curvature="0"
         style="fill:#000000;stroke-width:0" /><path
         id="path3470"
         d="m 561.22,418.65 0,0.37 -0.01,0.39 -0.01,0.39 -0.01,0.41 -0.04,0.84 -0.06,0.88 -0.08,0.92 -0.11,0.95 -0.13,0.97 -0.17,1.01 -0.19,1.02 -0.23,1.03 -0.27,1.05 -0.31,1.06 -0.34,1.07 -0.4,1.07 -0.21,0.53 -0.22,0.53 -0.24,0.53 -0.25,0.53 c -2.99,6.12 -7.27,9.36 -7.77,9.36 -0.29,0 -0.5,-0.19 -0.5,-0.49 0,-0.15 0,-0.25 0.94,-1.15 4.89,-4.92 7.73,-12.85 7.73,-23.27 0,-8.51 -1.84,-17.28 -8.03,-23.56 -0.64,-0.59 -0.64,-0.7 -0.64,-0.84 0,-0.3 0.21,-0.5 0.5,-0.5 0.5,0 4.97,3.39 7.92,9.71 2.53,5.47 3.13,11 3.13,15.19 z"
         inkscape:connector-curvature="0"
         style="fill:#000000;stroke-width:0" /></g>  </g>
</svg>
